solid OpenSCAD_Model
  facet normal 1 -0 0
    outer loop
      vertex 4 0 1
      vertex 4 4 0
      vertex 4 4 1
    endloop
  endfacet
  facet normal 1 0 0
    outer loop
      vertex 4 4 0
      vertex 4 0 1
      vertex 4 0 0
    endloop
  endfacet
  facet normal -0 0 1
    outer loop
      vertex 0 4 1
      vertex 4 0 1
      vertex 4 4 1
    endloop
  endfacet
  facet normal 0 0 1
    outer loop
      vertex 4 0 1
      vertex 0 4 1
      vertex 0 0 1
    endloop
  endfacet
  facet normal 0 0 -1
    outer loop
      vertex 0 0 0
      vertex 4 4 0
      vertex 4 0 0
    endloop
  endfacet
  facet normal -0 0 -1
    outer loop
      vertex 4 4 0
      vertex 0 0 0
      vertex 0 4 0
    endloop
  endfacet
  facet normal -1 0 0
    outer loop
      vertex 0 0 0
      vertex 0 4 1
      vertex 0 4 0
    endloop
  endfacet
  facet normal -1 -0 0
    outer loop
      vertex 0 4 1
      vertex 0 0 0
      vertex 0 0 1
    endloop
  endfacet
  facet normal 0 1 -0
    outer loop
      vertex 4 4 0
      vertex 0 4 1
      vertex 4 4 1
    endloop
  endfacet
  facet normal 0 1 0
    outer loop
      vertex 0 4 1
      vertex 4 4 0
      vertex 0 4 0
    endloop
  endfacet
  facet normal 0 -1 0
    outer loop
      vertex 0 0 0
      vertex 4 0 1
      vertex 0 0 1
    endloop
  endfacet
  facet normal 0 -1 -0
    outer loop
      vertex 4 0 1
      vertex 0 0 0
      vertex 4 0 0
    endloop
  endfacet
  facet normal 1 -0 0
    outer loop
      vertex 10 0 1
      vertex 10 4 0
      vertex 10 4 1
    endloop
  endfacet
  facet normal 1 0 0
    outer loop
      vertex 10 4 0
      vertex 10 0 1
      vertex 10 0 0
    endloop
  endfacet
  facet normal -0 0 1
    outer loop
      vertex 6 4 1
      vertex 10 0 1
      vertex 10 4 1
    endloop
  endfacet
  facet normal 0 0 1
    outer loop
      vertex 10 0 1
      vertex 6 4 1
      vertex 6 0 1
    endloop
  endfacet
  facet normal 0 0 -1
    outer loop
      vertex 6 0 0
      vertex 10 4 0
      vertex 10 0 0
    endloop
  endfacet
  facet normal -0 0 -1
    outer loop
      vertex 10 4 0
      vertex 6 0 0
      vertex 6 4 0
    endloop
  endfacet
  facet normal -1 0 0
    outer loop
      vertex 6 0 0
      vertex 6 4 1
      vertex 6 4 0
    endloop
  endfacet
  facet normal -1 -0 0
    outer loop
      vertex 6 4 1
      vertex 6 0 0
      vertex 6 0 1
    endloop
  endfacet
  facet normal 0 1 -0
    outer loop
      vertex 10 4 0
      vertex 6 4 1
      vertex 10 4 1
    endloop
  endfacet
  facet normal 0 1 0
    outer loop
      vertex 6 4 1
      vertex 10 4 0
      vertex 6 4 0
    endloop
  endfacet
  facet normal 0 -1 0
    outer loop
      vertex 6 0 0
      vertex 10 0 1
      vertex 6 0 1
    endloop
  endfacet
  facet normal 0 -1 -0
    outer loop
      vertex 10 0 1
      vertex 6 0 0
      vertex 10 0 0
    endloop
  endfacet
  facet normal 1 -0 0
    outer loop
      vertex 16 0 1
      vertex 16 4 0
      vertex 16 4 1
    endloop
  endfacet
  facet normal 1 0 0
    outer loop
      vertex 16 4 0
      vertex 16 0 1
      vertex 16 0 0
    endloop
  endfacet
  facet normal -0 0 1
    outer loop
      vertex 12 4 1
      vertex 16 0 1
      vertex 16 4 1
    endloop
  endfacet
  facet normal 0 0 1
    outer loop
      vertex 16 0 1
      vertex 12 4 1
      vertex 12 0 1
    endloop
  endfacet
  facet normal 0 0 -1
    outer loop
      vertex 12 0 0
      vertex 16 4 0
      vertex 16 0 0
    endloop
  endfacet
  facet normal -0 0 -1
    outer loop
      vertex 16 4 0
      vertex 12 0 0
      vertex 12 4 0
    endloop
  endfacet
  facet normal -1 0 0
    outer loop
      vertex 12 0 0
      vertex 12 4 1
      vertex 12 4 0
    endloop
  endfacet
  facet normal -1 -0 0
    outer loop
      vertex 12 4 1
      vertex 12 0 0
      vertex 12 0 1
    endloop
  endfacet
  facet normal 0 1 -0
    outer loop
      vertex 16 4 0
      vertex 12 4 1
      vertex 16 4 1
    endloop
  endfacet
  facet normal 0 1 0
    outer loop
      vertex 12 4 1
      vertex 16 4 0
      vertex 12 4 0
    endloop
  endfacet
  facet normal 0 -1 0
    outer loop
      vertex 12 0 0
      vertex 16 0 1
      vertex 12 0 1
    endloop
  endfacet
  facet normal 0 -1 -0
    outer loop
      vertex 16 0 1
      vertex 12 0 0
      vertex 16 0 0
    endloop
  endfacet
  facet normal 1 -0 0
    outer loop
      vertex 22 0 1
      vertex 22 4 0
      vertex 22 4 1
    endloop
  endfacet
  facet normal 1 0 0
    outer loop
      vertex 22 4 0
      vertex 22 0 1
      vertex 22 0 0
    endloop
  endfacet
  facet normal -0 0 1
    outer loop
      vertex 18 4 1
      vertex 22 0 1
      vertex 22 4 1
    endloop
  endfacet
  facet normal 0 0 1
    outer loop
      vertex 22 0 1
      vertex 18 4 1
      vertex 18 0 1
    endloop
  endfacet
  facet normal 0 0 -1
    outer loop
      vertex 18 0 0
      vertex 22 4 0
      vertex 22 0 0
    endloop
  endfacet
  facet normal -0 0 -1
    outer loop
      vertex 22 4 0
      vertex 18 0 0
      vertex 18 4 0
    endloop
  endfacet
  facet normal -1 0 0
    outer loop
      vertex 18 0 0
      vertex 18 4 1
      vertex 18 4 0
    endloop
  endfacet
  facet normal -1 -0 0
    outer loop
      vertex 18 4 1
      vertex 18 0 0
      vertex 18 0 1
    endloop
  endfacet
  facet normal 0 1 -0
    outer loop
      vertex 22 4 0
      vertex 18 4 1
      vertex 22 4 1
    endloop
  endfacet
  facet normal 0 1 0
    outer loop
      vertex 18 4 1
      vertex 22 4 0
      vertex 18 4 0
    endloop
  endfacet
  facet normal 0 -1 0
    outer loop
      vertex 18 0 0
      vertex 22 0 1
      vertex 18 0 1
    endloop
  endfacet
  facet normal 0 -1 -0
    outer loop
      vertex 22 0 1
      vertex 18 0 0
      vertex 22 0 0
    endloop
  endfacet
  facet normal 1 -0 0
    outer loop
      vertex 28 0 1
      vertex 28 4 0
      vertex 28 4 1
    endloop
  endfacet
  facet normal 1 0 0
    outer loop
      vertex 28 4 0
      vertex 28 0 1
      vertex 28 0 0
    endloop
  endfacet
  facet normal -0 0 1
    outer loop
      vertex 24 4 1
      vertex 28 0 1
      vertex 28 4 1
    endloop
  endfacet
  facet normal 0 0 1
    outer loop
      vertex 28 0 1
      vertex 24 4 1
      vertex 24 0 1
    endloop
  endfacet
  facet normal 0 0 -1
    outer loop
      vertex 24 0 0
      vertex 28 4 0
      vertex 28 0 0
    endloop
  endfacet
  facet normal -0 0 -1
    outer loop
      vertex 28 4 0
      vertex 24 0 0
      vertex 24 4 0
    endloop
  endfacet
  facet normal -1 0 0
    outer loop
      vertex 24 0 0
      vertex 24 4 1
      vertex 24 4 0
    endloop
  endfacet
  facet normal -1 -0 0
    outer loop
      vertex 24 4 1
      vertex 24 0 0
      vertex 24 0 1
    endloop
  endfacet
  facet normal 0 1 -0
    outer loop
      vertex 28 4 0
      vertex 24 4 1
      vertex 28 4 1
    endloop
  endfacet
  facet normal 0 1 0
    outer loop
      vertex 24 4 1
      vertex 28 4 0
      vertex 24 4 0
    endloop
  endfacet
  facet normal 0 -1 0
    outer loop
      vertex 24 0 0
      vertex 28 0 1
      vertex 24 0 1
    endloop
  endfacet
  facet normal 0 -1 -0
    outer loop
      vertex 28 0 1
      vertex 24 0 0
      vertex 28 0 0
    endloop
  endfacet
  facet normal 1 -0 0
    outer loop
      vertex 4 6 1
      vertex 4 10 0
      vertex 4 10 1
    endloop
  endfacet
  facet normal 1 0 0
    outer loop
      vertex 4 10 0
      vertex 4 6 1
      vertex 4 6 0
    endloop
  endfacet
  facet normal -0 0 1
    outer loop
      vertex 0 10 1
      vertex 4 6 1
      vertex 4 10 1
    endloop
  endfacet
  facet normal 0 0 1
    outer loop
      vertex 4 6 1
      vertex 0 10 1
      vertex 0 6 1
    endloop
  endfacet
  facet normal 0 0 -1
    outer loop
      vertex 0 6 0
      vertex 4 10 0
      vertex 4 6 0
    endloop
  endfacet
  facet normal -0 0 -1
    outer loop
      vertex 4 10 0
      vertex 0 6 0
      vertex 0 10 0
    endloop
  endfacet
  facet normal -1 0 0
    outer loop
      vertex 0 6 0
      vertex 0 10 1
      vertex 0 10 0
    endloop
  endfacet
  facet normal -1 -0 0
    outer loop
      vertex 0 10 1
      vertex 0 6 0
      vertex 0 6 1
    endloop
  endfacet
  facet normal 0 1 -0
    outer loop
      vertex 4 10 0
      vertex 0 10 1
      vertex 4 10 1
    endloop
  endfacet
  facet normal 0 1 0
    outer loop
      vertex 0 10 1
      vertex 4 10 0
      vertex 0 10 0
    endloop
  endfacet
  facet normal 0 -1 0
    outer loop
      vertex 0 6 0
      vertex 4 6 1
      vertex 0 6 1
    endloop
  endfacet
  facet normal 0 -1 -0
    outer loop
      vertex 4 6 1
      vertex 0 6 0
      vertex 4 6 0
    endloop
  endfacet
  facet normal 1 -0 0
    outer loop
      vertex 10 6 1
      vertex 10 10 0
      vertex 10 10 1
    endloop
  endfacet
  facet normal 1 0 0
    outer loop
      vertex 10 10 0
      vertex 10 6 1
      vertex 10 6 0
    endloop
  endfacet
  facet normal -0 0 1
    outer loop
      vertex 6 10 1
      vertex 10 6 1
      vertex 10 10 1
    endloop
  endfacet
  facet normal 0 0 1
    outer loop
      vertex 10 6 1
      vertex 6 10 1
      vertex 6 6 1
    endloop
  endfacet
  facet normal 0 0 -1
    outer loop
      vertex 6 6 0
      vertex 10 10 0
      vertex 10 6 0
    endloop
  endfacet
  facet normal -0 0 -1
    outer loop
      vertex 10 10 0
      vertex 6 6 0
      vertex 6 10 0
    endloop
  endfacet
  facet normal -1 0 0
    outer loop
      vertex 6 6 0
      vertex 6 10 1
      vertex 6 10 0
    endloop
  endfacet
  facet normal -1 -0 0
    outer loop
      vertex 6 10 1
      vertex 6 6 0
      vertex 6 6 1
    endloop
  endfacet
  facet normal 0 1 -0
    outer loop
      vertex 10 10 0
      vertex 6 10 1
      vertex 10 10 1
    endloop
  endfacet
  facet normal 0 1 0
    outer loop
      vertex 6 10 1
      vertex 10 10 0
      vertex 6 10 0
    endloop
  endfacet
  facet normal 0 -1 0
    outer loop
      vertex 6 6 0
      vertex 10 6 1
      vertex 6 6 1
    endloop
  endfacet
  facet normal 0 -1 -0
    outer loop
      vertex 10 6 1
      vertex 6 6 0
      vertex 10 6 0
    endloop
  endfacet
  facet normal 1 -0 0
    outer loop
      vertex 16 6 1
      vertex 16 10 0
      vertex 16 10 1
    endloop
  endfacet
  facet normal 1 0 0
    outer loop
      vertex 16 10 0
      vertex 16 6 1
      vertex 16 6 0
    endloop
  endfacet
  facet normal -0 0 1
    outer loop
      vertex 12 10 1
      vertex 16 6 1
      vertex 16 10 1
    endloop
  endfacet
  facet normal 0 0 1
    outer loop
      vertex 16 6 1
      vertex 12 10 1
      vertex 12 6 1
    endloop
  endfacet
  facet normal 0 0 -1
    outer loop
      vertex 12 6 0
      vertex 16 10 0
      vertex 16 6 0
    endloop
  endfacet
  facet normal -0 0 -1
    outer loop
      vertex 16 10 0
      vertex 12 6 0
      vertex 12 10 0
    endloop
  endfacet
  facet normal -1 0 0
    outer loop
      vertex 12 6 0
      vertex 12 10 1
      vertex 12 10 0
    endloop
  endfacet
  facet normal -1 -0 0
    outer loop
      vertex 12 10 1
      vertex 12 6 0
      vertex 12 6 1
    endloop
  endfacet
  facet normal 0 1 -0
    outer loop
      vertex 16 10 0
      vertex 12 10 1
      vertex 16 10 1
    endloop
  endfacet
  facet normal 0 1 0
    outer loop
      vertex 12 10 1
      vertex 16 10 0
      vertex 12 10 0
    endloop
  endfacet
  facet normal 0 -1 0
    outer loop
      vertex 12 6 0
      vertex 16 6 1
      vertex 12 6 1
    endloop
  endfacet
  facet normal 0 -1 -0
    outer loop
      vertex 16 6 1
      vertex 12 6 0
      vertex 16 6 0
    endloop
  endfacet
  facet normal 1 -0 0
    outer loop
      vertex 22 6 1
      vertex 22 10 0
      vertex 22 10 1
    endloop
  endfacet
  facet normal 1 0 0
    outer loop
      vertex 22 10 0
      vertex 22 6 1
      vertex 22 6 0
    endloop
  endfacet
  facet normal -0 0 1
    outer loop
      vertex 18 10 1
      vertex 22 6 1
      vertex 22 10 1
    endloop
  endfacet
  facet normal 0 0 1
    outer loop
      vertex 22 6 1
      vertex 18 10 1
      vertex 18 6 1
    endloop
  endfacet
  facet normal 0 0 -1
    outer loop
      vertex 18 6 0
      vertex 22 10 0
      vertex 22 6 0
    endloop
  endfacet
  facet normal -0 0 -1
    outer loop
      vertex 22 10 0
      vertex 18 6 0
      vertex 18 10 0
    endloop
  endfacet
  facet normal -1 0 0
    outer loop
      vertex 18 6 0
      vertex 18 10 1
      vertex 18 10 0
    endloop
  endfacet
  facet normal -1 -0 0
    outer loop
      vertex 18 10 1
      vertex 18 6 0
      vertex 18 6 1
    endloop
  endfacet
  facet normal 0 1 -0
    outer loop
      vertex 22 10 0
      vertex 18 10 1
      vertex 22 10 1
    endloop
  endfacet
  facet normal 0 1 0
    outer loop
      vertex 18 10 1
      vertex 22 10 0
      vertex 18 10 0
    endloop
  endfacet
  facet normal 0 -1 0
    outer loop
      vertex 18 6 0
      vertex 22 6 1
      vertex 18 6 1
    endloop
  endfacet
  facet normal 0 -1 -0
    outer loop
      vertex 22 6 1
      vertex 18 6 0
      vertex 22 6 0
    endloop
  endfacet
  facet normal 1 -0 0
    outer loop
      vertex 28 6 1
      vertex 28 10 0
      vertex 28 10 1
    endloop
  endfacet
  facet normal 1 0 0
    outer loop
      vertex 28 10 0
      vertex 28 6 1
      vertex 28 6 0
    endloop
  endfacet
  facet normal -0 0 1
    outer loop
      vertex 24 10 1
      vertex 28 6 1
      vertex 28 10 1
    endloop
  endfacet
  facet normal 0 0 1
    outer loop
      vertex 28 6 1
      vertex 24 10 1
      vertex 24 6 1
    endloop
  endfacet
  facet normal 0 0 -1
    outer loop
      vertex 24 6 0
      vertex 28 10 0
      vertex 28 6 0
    endloop
  endfacet
  facet normal -0 0 -1
    outer loop
      vertex 28 10 0
      vertex 24 6 0
      vertex 24 10 0
    endloop
  endfacet
  facet normal -1 0 0
    outer loop
      vertex 24 6 0
      vertex 24 10 1
      vertex 24 10 0
    endloop
  endfacet
  facet normal -1 -0 0
    outer loop
      vertex 24 10 1
      vertex 24 6 0
      vertex 24 6 1
    endloop
  endfacet
  facet normal 0 1 -0
    outer loop
      vertex 28 10 0
      vertex 24 10 1
      vertex 28 10 1
    endloop
  endfacet
  facet normal 0 1 0
    outer loop
      vertex 24 10 1
      vertex 28 10 0
      vertex 24 10 0
    endloop
  endfacet
  facet normal 0 -1 0
    outer loop
      vertex 24 6 0
      vertex 28 6 1
      vertex 24 6 1
    endloop
  endfacet
  facet normal 0 -1 -0
    outer loop
      vertex 28 6 1
      vertex 24 6 0
      vertex 28 6 0
    endloop
  endfacet
  facet normal 1 -0 0
    outer loop
      vertex 4 12 1
      vertex 4 16 0
      vertex 4 16 1
    endloop
  endfacet
  facet normal 1 0 0
    outer loop
      vertex 4 16 0
      vertex 4 12 1
      vertex 4 12 0
    endloop
  endfacet
  facet normal -0 0 1
    outer loop
      vertex 0 16 1
      vertex 4 12 1
      vertex 4 16 1
    endloop
  endfacet
  facet normal 0 0 1
    outer loop
      vertex 4 12 1
      vertex 0 16 1
      vertex 0 12 1
    endloop
  endfacet
  facet normal 0 0 -1
    outer loop
      vertex 0 12 0
      vertex 4 16 0
      vertex 4 12 0
    endloop
  endfacet
  facet normal -0 0 -1
    outer loop
      vertex 4 16 0
      vertex 0 12 0
      vertex 0 16 0
    endloop
  endfacet
  facet normal -1 0 0
    outer loop
      vertex 0 12 0
      vertex 0 16 1
      vertex 0 16 0
    endloop
  endfacet
  facet normal -1 -0 0
    outer loop
      vertex 0 16 1
      vertex 0 12 0
      vertex 0 12 1
    endloop
  endfacet
  facet normal 0 1 -0
    outer loop
      vertex 4 16 0
      vertex 0 16 1
      vertex 4 16 1
    endloop
  endfacet
  facet normal 0 1 0
    outer loop
      vertex 0 16 1
      vertex 4 16 0
      vertex 0 16 0
    endloop
  endfacet
  facet normal 0 -1 0
    outer loop
      vertex 0 12 0
      vertex 4 12 1
      vertex 0 12 1
    endloop
  endfacet
  facet normal 0 -1 -0
    outer loop
      vertex 4 12 1
      vertex 0 12 0
      vertex 4 12 0
    endloop
  endfacet
  facet normal 1 -0 0
    outer loop
      vertex 10 12 1
      vertex 10 16 0
      vertex 10 16 1
    endloop
  endfacet
  facet normal 1 0 0
    outer loop
      vertex 10 16 0
      vertex 10 12 1
      vertex 10 12 0
    endloop
  endfacet
  facet normal -0 0 1
    outer loop
      vertex 6 16 1
      vertex 10 12 1
      vertex 10 16 1
    endloop
  endfacet
  facet normal 0 0 1
    outer loop
      vertex 10 12 1
      vertex 6 16 1
      vertex 6 12 1
    endloop
  endfacet
  facet normal 0 0 -1
    outer loop
      vertex 6 12 0
      vertex 10 16 0
      vertex 10 12 0
    endloop
  endfacet
  facet normal -0 0 -1
    outer loop
      vertex 10 16 0
      vertex 6 12 0
      vertex 6 16 0
    endloop
  endfacet
  facet normal -1 0 0
    outer loop
      vertex 6 12 0
      vertex 6 16 1
      vertex 6 16 0
    endloop
  endfacet
  facet normal -1 -0 0
    outer loop
      vertex 6 16 1
      vertex 6 12 0
      vertex 6 12 1
    endloop
  endfacet
  facet normal 0 1 -0
    outer loop
      vertex 10 16 0
      vertex 6 16 1
      vertex 10 16 1
    endloop
  endfacet
  facet normal 0 1 0
    outer loop
      vertex 6 16 1
      vertex 10 16 0
      vertex 6 16 0
    endloop
  endfacet
  facet normal 0 -1 0
    outer loop
      vertex 6 12 0
      vertex 10 12 1
      vertex 6 12 1
    endloop
  endfacet
  facet normal 0 -1 -0
    outer loop
      vertex 10 12 1
      vertex 6 12 0
      vertex 10 12 0
    endloop
  endfacet
  facet normal 1 -0 0
    outer loop
      vertex 16 12 1
      vertex 16 16 0
      vertex 16 16 1
    endloop
  endfacet
  facet normal 1 0 0
    outer loop
      vertex 16 16 0
      vertex 16 12 1
      vertex 16 12 0
    endloop
  endfacet
  facet normal -0 0 1
    outer loop
      vertex 12 16 1
      vertex 16 12 1
      vertex 16 16 1
    endloop
  endfacet
  facet normal 0 0 1
    outer loop
      vertex 16 12 1
      vertex 12 16 1
      vertex 12 12 1
    endloop
  endfacet
  facet normal 0 0 -1
    outer loop
      vertex 12 12 0
      vertex 16 16 0
      vertex 16 12 0
    endloop
  endfacet
  facet normal -0 0 -1
    outer loop
      vertex 16 16 0
      vertex 12 12 0
      vertex 12 16 0
    endloop
  endfacet
  facet normal -1 0 0
    outer loop
      vertex 12 12 0
      vertex 12 16 1
      vertex 12 16 0
    endloop
  endfacet
  facet normal -1 -0 0
    outer loop
      vertex 12 16 1
      vertex 12 12 0
      vertex 12 12 1
    endloop
  endfacet
  facet normal 0 1 -0
    outer loop
      vertex 16 16 0
      vertex 12 16 1
      vertex 16 16 1
    endloop
  endfacet
  facet normal 0 1 0
    outer loop
      vertex 12 16 1
      vertex 16 16 0
      vertex 12 16 0
    endloop
  endfacet
  facet normal 0 -1 0
    outer loop
      vertex 12 12 0
      vertex 16 12 1
      vertex 12 12 1
    endloop
  endfacet
  facet normal 0 -1 -0
    outer loop
      vertex 16 12 1
      vertex 12 12 0
      vertex 16 12 0
    endloop
  endfacet
  facet normal 1 -0 0
    outer loop
      vertex 22 12 1
      vertex 22 16 0
      vertex 22 16 1
    endloop
  endfacet
  facet normal 1 0 0
    outer loop
      vertex 22 16 0
      vertex 22 12 1
      vertex 22 12 0
    endloop
  endfacet
  facet normal -0 0 1
    outer loop
      vertex 18 16 1
      vertex 22 12 1
      vertex 22 16 1
    endloop
  endfacet
  facet normal 0 0 1
    outer loop
      vertex 22 12 1
      vertex 18 16 1
      vertex 18 12 1
    endloop
  endfacet
  facet normal 0 0 -1
    outer loop
      vertex 18 12 0
      vertex 22 16 0
      vertex 22 12 0
    endloop
  endfacet
  facet normal -0 0 -1
    outer loop
      vertex 22 16 0
      vertex 18 12 0
      vertex 18 16 0
    endloop
  endfacet
  facet normal -1 0 0
    outer loop
      vertex 18 12 0
      vertex 18 16 1
      vertex 18 16 0
    endloop
  endfacet
  facet normal -1 -0 0
    outer loop
      vertex 18 16 1
      vertex 18 12 0
      vertex 18 12 1
    endloop
  endfacet
  facet normal 0 1 -0
    outer loop
      vertex 22 16 0
      vertex 18 16 1
      vertex 22 16 1
    endloop
  endfacet
  facet normal 0 1 0
    outer loop
      vertex 18 16 1
      vertex 22 16 0
      vertex 18 16 0
    endloop
  endfacet
  facet normal 0 -1 0
    outer loop
      vertex 18 12 0
      vertex 22 12 1
      vertex 18 12 1
    endloop
  endfacet
  facet normal 0 -1 -0
    outer loop
      vertex 22 12 1
      vertex 18 12 0
      vertex 22 12 0
    endloop
  endfacet
  facet normal 1 -0 0
    outer loop
      vertex 28 12 1
      vertex 28 16 0
      vertex 28 16 1
    endloop
  endfacet
  facet normal 1 0 0
    outer loop
      vertex 28 16 0
      vertex 28 12 1
      vertex 28 12 0
    endloop
  endfacet
  facet normal -0 0 1
    outer loop
      vertex 24 16 1
      vertex 28 12 1
      vertex 28 16 1
    endloop
  endfacet
  facet normal 0 0 1
    outer loop
      vertex 28 12 1
      vertex 24 16 1
      vertex 24 12 1
    endloop
  endfacet
  facet normal 0 0 -1
    outer loop
      vertex 24 12 0
      vertex 28 16 0
      vertex 28 12 0
    endloop
  endfacet
  facet normal -0 0 -1
    outer loop
      vertex 28 16 0
      vertex 24 12 0
      vertex 24 16 0
    endloop
  endfacet
  facet normal -1 0 0
    outer loop
      vertex 24 12 0
      vertex 24 16 1
      vertex 24 16 0
    endloop
  endfacet
  facet normal -1 -0 0
    outer loop
      vertex 24 16 1
      vertex 24 12 0
      vertex 24 12 1
    endloop
  endfacet
  facet normal 0 1 -0
    outer loop
      vertex 28 16 0
      vertex 24 16 1
      vertex 28 16 1
    endloop
  endfacet
  facet normal 0 1 0
    outer loop
      vertex 24 16 1
      vertex 28 16 0
      vertex 24 16 0
    endloop
  endfacet
  facet normal 0 -1 0
    outer loop
      vertex 24 12 0
      vertex 28 12 1
      vertex 24 12 1
    endloop
  endfacet
  facet normal 0 -1 -0
    outer loop
      vertex 28 12 1
      vertex 24 12 0
      vertex 28 12 0
    endloop
  endfacet
  facet normal 1 -0 0
    outer loop
      vertex 4 18 1
      vertex 4 22 0
      vertex 4 22 1
    endloop
  endfacet
  facet normal 1 0 0
    outer loop
      vertex 4 22 0
      vertex 4 18 1
      vertex 4 18 0
    endloop
  endfacet
  facet normal -0 0 1
    outer loop
      vertex 0 22 1
      vertex 4 18 1
      vertex 4 22 1
    endloop
  endfacet
  facet normal 0 0 1
    outer loop
      vertex 4 18 1
      vertex 0 22 1
      vertex 0 18 1
    endloop
  endfacet
  facet normal 0 0 -1
    outer loop
      vertex 0 18 0
      vertex 4 22 0
      vertex 4 18 0
    endloop
  endfacet
  facet normal -0 0 -1
    outer loop
      vertex 4 22 0
      vertex 0 18 0
      vertex 0 22 0
    endloop
  endfacet
  facet normal -1 0 0
    outer loop
      vertex 0 18 0
      vertex 0 22 1
      vertex 0 22 0
    endloop
  endfacet
  facet normal -1 -0 0
    outer loop
      vertex 0 22 1
      vertex 0 18 0
      vertex 0 18 1
    endloop
  endfacet
  facet normal 0 1 -0
    outer loop
      vertex 4 22 0
      vertex 0 22 1
      vertex 4 22 1
    endloop
  endfacet
  facet normal 0 1 0
    outer loop
      vertex 0 22 1
      vertex 4 22 0
      vertex 0 22 0
    endloop
  endfacet
  facet normal 0 -1 0
    outer loop
      vertex 0 18 0
      vertex 4 18 1
      vertex 0 18 1
    endloop
  endfacet
  facet normal 0 -1 -0
    outer loop
      vertex 4 18 1
      vertex 0 18 0
      vertex 4 18 0
    endloop
  endfacet
  facet normal 1 -0 0
    outer loop
      vertex 10 18 1
      vertex 10 22 0
      vertex 10 22 1
    endloop
  endfacet
  facet normal 1 0 0
    outer loop
      vertex 10 22 0
      vertex 10 18 1
      vertex 10 18 0
    endloop
  endfacet
  facet normal -0 0 1
    outer loop
      vertex 6 22 1
      vertex 10 18 1
      vertex 10 22 1
    endloop
  endfacet
  facet normal 0 0 1
    outer loop
      vertex 10 18 1
      vertex 6 22 1
      vertex 6 18 1
    endloop
  endfacet
  facet normal 0 0 -1
    outer loop
      vertex 6 18 0
      vertex 10 22 0
      vertex 10 18 0
    endloop
  endfacet
  facet normal -0 0 -1
    outer loop
      vertex 10 22 0
      vertex 6 18 0
      vertex 6 22 0
    endloop
  endfacet
  facet normal -1 0 0
    outer loop
      vertex 6 18 0
      vertex 6 22 1
      vertex 6 22 0
    endloop
  endfacet
  facet normal -1 -0 0
    outer loop
      vertex 6 22 1
      vertex 6 18 0
      vertex 6 18 1
    endloop
  endfacet
  facet normal 0 1 -0
    outer loop
      vertex 10 22 0
      vertex 6 22 1
      vertex 10 22 1
    endloop
  endfacet
  facet normal 0 1 0
    outer loop
      vertex 6 22 1
      vertex 10 22 0
      vertex 6 22 0
    endloop
  endfacet
  facet normal 0 -1 0
    outer loop
      vertex 6 18 0
      vertex 10 18 1
      vertex 6 18 1
    endloop
  endfacet
  facet normal 0 -1 -0
    outer loop
      vertex 10 18 1
      vertex 6 18 0
      vertex 10 18 0
    endloop
  endfacet
  facet normal 1 -0 0
    outer loop
      vertex 16 18 1
      vertex 16 22 0
      vertex 16 22 1
    endloop
  endfacet
  facet normal 1 0 0
    outer loop
      vertex 16 22 0
      vertex 16 18 1
      vertex 16 18 0
    endloop
  endfacet
  facet normal -0 0 1
    outer loop
      vertex 12 22 1
      vertex 16 18 1
      vertex 16 22 1
    endloop
  endfacet
  facet normal 0 0 1
    outer loop
      vertex 16 18 1
      vertex 12 22 1
      vertex 12 18 1
    endloop
  endfacet
  facet normal 0 0 -1
    outer loop
      vertex 12 18 0
      vertex 16 22 0
      vertex 16 18 0
    endloop
  endfacet
  facet normal -0 0 -1
    outer loop
      vertex 16 22 0
      vertex 12 18 0
      vertex 12 22 0
    endloop
  endfacet
  facet normal -1 0 0
    outer loop
      vertex 12 18 0
      vertex 12 22 1
      vertex 12 22 0
    endloop
  endfacet
  facet normal -1 -0 0
    outer loop
      vertex 12 22 1
      vertex 12 18 0
      vertex 12 18 1
    endloop
  endfacet
  facet normal 0 1 -0
    outer loop
      vertex 16 22 0
      vertex 12 22 1
      vertex 16 22 1
    endloop
  endfacet
  facet normal 0 1 0
    outer loop
      vertex 12 22 1
      vertex 16 22 0
      vertex 12 22 0
    endloop
  endfacet
  facet normal 0 -1 0
    outer loop
      vertex 12 18 0
      vertex 16 18 1
      vertex 12 18 1
    endloop
  endfacet
  facet normal 0 -1 -0
    outer loop
      vertex 16 18 1
      vertex 12 18 0
      vertex 16 18 0
    endloop
  endfacet
  facet normal 1 -0 0
    outer loop
      vertex 22 18 1
      vertex 22 22 0
      vertex 22 22 1
    endloop
  endfacet
  facet normal 1 0 0
    outer loop
      vertex 22 22 0
      vertex 22 18 1
      vertex 22 18 0
    endloop
  endfacet
  facet normal -0 0 1
    outer loop
      vertex 18 22 1
      vertex 22 18 1
      vertex 22 22 1
    endloop
  endfacet
  facet normal 0 0 1
    outer loop
      vertex 22 18 1
      vertex 18 22 1
      vertex 18 18 1
    endloop
  endfacet
  facet normal 0 0 -1
    outer loop
      vertex 18 18 0
      vertex 22 22 0
      vertex 22 18 0
    endloop
  endfacet
  facet normal -0 0 -1
    outer loop
      vertex 22 22 0
      vertex 18 18 0
      vertex 18 22 0
    endloop
  endfacet
  facet normal -1 0 0
    outer loop
      vertex 18 18 0
      vertex 18 22 1
      vertex 18 22 0
    endloop
  endfacet
  facet normal -1 -0 0
    outer loop
      vertex 18 22 1
      vertex 18 18 0
      vertex 18 18 1
    endloop
  endfacet
  facet normal 0 1 -0
    outer loop
      vertex 22 22 0
      vertex 18 22 1
      vertex 22 22 1
    endloop
  endfacet
  facet normal 0 1 0
    outer loop
      vertex 18 22 1
      vertex 22 22 0
      vertex 18 22 0
    endloop
  endfacet
  facet normal 0 -1 0
    outer loop
      vertex 18 18 0
      vertex 22 18 1
      vertex 18 18 1
    endloop
  endfacet
  facet normal 0 -1 -0
    outer loop
      vertex 22 18 1
      vertex 18 18 0
      vertex 22 18 0
    endloop
  endfacet
  facet normal 1 -0 0
    outer loop
      vertex 28 18 1
      vertex 28 22 0
      vertex 28 22 1
    endloop
  endfacet
  facet normal 1 0 0
    outer loop
      vertex 28 22 0
      vertex 28 18 1
      vertex 28 18 0
    endloop
  endfacet
  facet normal -0 0 1
    outer loop
      vertex 24 22 1
      vertex 28 18 1
      vertex 28 22 1
    endloop
  endfacet
  facet normal 0 0 1
    outer loop
      vertex 28 18 1
      vertex 24 22 1
      vertex 24 18 1
    endloop
  endfacet
  facet normal 0 0 -1
    outer loop
      vertex 24 18 0
      vertex 28 22 0
      vertex 28 18 0
    endloop
  endfacet
  facet normal -0 0 -1
    outer loop
      vertex 28 22 0
      vertex 24 18 0
      vertex 24 22 0
    endloop
  endfacet
  facet normal -1 0 0
    outer loop
      vertex 24 18 0
      vertex 24 22 1
      vertex 24 22 0
    endloop
  endfacet
  facet normal -1 -0 0
    outer loop
      vertex 24 22 1
      vertex 24 18 0
      vertex 24 18 1
    endloop
  endfacet
  facet normal 0 1 -0
    outer loop
      vertex 28 22 0
      vertex 24 22 1
      vertex 28 22 1
    endloop
  endfacet
  facet normal 0 1 0
    outer loop
      vertex 24 22 1
      vertex 28 22 0
      vertex 24 22 0
    endloop
  endfacet
  facet normal 0 -1 0
    outer loop
      vertex 24 18 0
      vertex 28 18 1
      vertex 24 18 1
    endloop
  endfacet
  facet normal 0 -1 -0
    outer loop
      vertex 28 18 1
      vertex 24 18 0
      vertex 28 18 0
    endloop
  endfacet
endsolid OpenSCAD_Model
