solid OpenSCAD_Model
  facet normal 1 -0 0
    outer loop
      vertex 30 10 40
      vertex 30 30 20
      vertex 30 30 40
    endloop
  endfacet
  facet normal 1 0 0
    outer loop
      vertex 30 30 20
      vertex 30 10 40
      vertex 30 10 20
    endloop
  endfacet
  facet normal 0 0 1
    outer loop
      vertex 100 60 40
      vertex 70 30 40
      vertex 100 0 40
    endloop
  endfacet
  facet normal 0 0 1
    outer loop
      vertex 100 60 40
      vertex 30 30 40
      vertex 70 30 40
    endloop
  endfacet
  facet normal -0 0 1
    outer loop
      vertex 0 60 40
      vertex 30 30 40
      vertex 100 60 40
    endloop
  endfacet
  facet normal 0 0 1
    outer loop
      vertex 0 10 40
      vertex 30 30 40
      vertex 0 60 40
    endloop
  endfacet
  facet normal 0 0 1
    outer loop
      vertex 30 30 40
      vertex 0 10 40
      vertex 30 10 40
    endloop
  endfacet
  facet normal 0 0 1
    outer loop
      vertex 100 0 40
      vertex 70 30 40
      vertex 70 0 40
    endloop
  endfacet
  facet normal 0 0 -1
    outer loop
      vertex 30 10 20
      vertex 0 10 20
      vertex 30 30 20
    endloop
  endfacet
  facet normal 0 0 -1
    outer loop
      vertex 30 30 20
      vertex 70 60 20
      vertex 70 30 20
    endloop
  endfacet
  facet normal 0 0 -1
    outer loop
      vertex 0 60 20
      vertex 30 30 20
      vertex 0 10 20
    endloop
  endfacet
  facet normal 0 0 -1
    outer loop
      vertex 30 30 20
      vertex 0 60 20
      vertex 70 60 20
    endloop
  endfacet
  facet normal -1 0 0
    outer loop
      vertex 0 10 20
      vertex 0 60 40
      vertex 0 60 20
    endloop
  endfacet
  facet normal -1 -0 0
    outer loop
      vertex 0 60 40
      vertex 0 10 20
      vertex 0 10 40
    endloop
  endfacet
  facet normal 0 1 0
    outer loop
      vertex 100 60 40
      vertex 70 60 20
      vertex 0 60 40
    endloop
  endfacet
  facet normal 0 1 -0
    outer loop
      vertex 100 60 0
      vertex 70 60 20
      vertex 100 60 40
    endloop
  endfacet
  facet normal 0 1 0
    outer loop
      vertex 70 60 20
      vertex 100 60 0
      vertex 70 60 0
    endloop
  endfacet
  facet normal 0 1 0
    outer loop
      vertex 0 60 40
      vertex 70 60 20
      vertex 0 60 20
    endloop
  endfacet
  facet normal 0 -1 0
    outer loop
      vertex 0 10 20
      vertex 30 10 40
      vertex 0 10 40
    endloop
  endfacet
  facet normal 0 -1 -0
    outer loop
      vertex 30 10 40
      vertex 0 10 20
      vertex 30 10 20
    endloop
  endfacet
  facet normal -1 0 0
    outer loop
      vertex 70 60 0
      vertex 70 30 20
      vertex 70 60 20
    endloop
  endfacet
  facet normal -1 0 0
    outer loop
      vertex 70 0 0
      vertex 70 30 20
      vertex 70 60 0
    endloop
  endfacet
  facet normal -1 0 0
    outer loop
      vertex 70 0 40
      vertex 70 30 20
      vertex 70 0 0
    endloop
  endfacet
  facet normal -1 0 0
    outer loop
      vertex 70 30 20
      vertex 70 0 40
      vertex 70 30 40
    endloop
  endfacet
  facet normal 0 -1 0
    outer loop
      vertex 30 30 20
      vertex 70 30 40
      vertex 30 30 40
    endloop
  endfacet
  facet normal 0 -1 -0
    outer loop
      vertex 70 30 40
      vertex 30 30 20
      vertex 70 30 20
    endloop
  endfacet
  facet normal 1 -0 0
    outer loop
      vertex 100 0 40
      vertex 100 60 0
      vertex 100 60 40
    endloop
  endfacet
  facet normal 1 0 0
    outer loop
      vertex 100 60 0
      vertex 100 0 40
      vertex 100 0 0
    endloop
  endfacet
  facet normal 0 0 -1
    outer loop
      vertex 70 0 0
      vertex 100 60 0
      vertex 100 0 0
    endloop
  endfacet
  facet normal -0 0 -1
    outer loop
      vertex 100 60 0
      vertex 70 0 0
      vertex 70 60 0
    endloop
  endfacet
  facet normal 0 -1 0
    outer loop
      vertex 70 0 0
      vertex 100 0 40
      vertex 70 0 40
    endloop
  endfacet
  facet normal 0 -1 -0
    outer loop
      vertex 100 0 40
      vertex 70 0 0
      vertex 100 0 0
    endloop
  endfacet
endsolid OpenSCAD_Model
